<svg width="170" height="16" viewBox="0 0 170 16" fill="none" xmlns="http://www.w3.org/2000/svg">
<path d="M3.67906 6.88V15H0.399063V0.799999H2.99906L9.57906 9.16V0.799999H12.8591V15H10.1791L3.67906 6.88ZM26.0548 12.12V15H16.0748V0.799999H25.8748V3.68H19.3548V6.44H24.9548V9.1H19.3548V12.12H26.0548ZM32.1275 0.799999H35.6675L40.5475 15H37.1875L36.0875 11.82H31.6675L30.5875 15H27.2275L32.1275 0.799999ZM35.5475 9.56L33.8875 4.1L32.1875 9.56H35.5475ZM42.4459 15V0.799999H48.8459C49.5126 0.799999 50.1259 0.939999 50.6859 1.22C51.2593 1.48667 51.7526 1.85333 52.1659 2.32C52.5793 2.77333 52.8993 3.28667 53.1259 3.86C53.3659 4.43333 53.4859 5.01333 53.4859 5.6C53.4859 6.48 53.2726 7.29333 52.8459 8.04C52.4326 8.77333 51.8726 9.33333 51.1659 9.72L54.2859 15H50.6659L47.9459 10.42H45.7259V15H42.4459ZM45.7259 7.56H48.7259C49.1126 7.56 49.4459 7.38 49.7259 7.02C50.0059 6.64667 50.1459 6.17333 50.1459 5.6C50.1459 5.02667 49.9859 4.56667 49.6659 4.22C49.3459 3.86 48.9993 3.68 48.6259 3.68H45.7259V7.56ZM61.5123 15V0.799999H66.8123C68.3723 0.799999 69.6723 1.12 70.7123 1.76C71.7657 2.38667 72.559 3.24 73.0923 4.32C73.6257 5.38667 73.8923 6.57333 73.8923 7.88C73.8923 9.32 73.599 10.5733 73.0123 11.64C72.4257 12.7067 71.599 13.5333 70.5323 14.12C69.479 14.7067 68.239 15 66.8123 15H61.5123ZM70.5523 7.88C70.5523 6.62667 70.2257 5.61333 69.5723 4.84C68.919 4.06667 67.999 3.68 66.8123 3.68H64.7923V12.12H66.8123C67.6123 12.12 68.2923 11.94 68.8523 11.58C69.4123 11.2067 69.8323 10.7 70.1123 10.06C70.4057 9.42 70.5523 8.69333 70.5523 7.88ZM86.3088 12.12V15H76.3288V0.799999H86.1288V3.68H79.6088V6.44H85.2088V9.1H79.6088V12.12H86.3088ZM90.8614 0.799999L94.2014 11.16L97.5014 0.799999H100.961L95.8014 15H92.5814L87.3814 0.799999H90.8614ZM113.598 3.68H109.278V15H105.998V3.68H101.658V0.799999H113.598V3.68ZM121.646 15.12C120.593 15.12 119.633 14.92 118.766 14.52C117.913 14.1067 117.173 13.56 116.546 12.88C115.92 12.1867 115.44 11.4133 115.106 10.56C114.773 9.69333 114.606 8.8 114.606 7.88C114.606 6.94667 114.78 6.05333 115.126 5.2C115.486 4.33333 115.98 3.56667 116.606 2.9C117.246 2.22 118 1.68667 118.866 1.3C119.733 0.913332 120.68 0.719999 121.706 0.719999C122.76 0.719999 123.713 0.926666 124.566 1.34C125.433 1.74 126.173 2.28667 126.786 2.98C127.413 3.67333 127.893 4.45333 128.226 5.32C128.56 6.17333 128.726 7.04667 128.726 7.94C128.726 8.87333 128.546 9.77333 128.186 10.64C127.84 11.4933 127.346 12.26 126.706 12.94C126.08 13.6067 125.333 14.14 124.466 14.54C123.613 14.9267 122.673 15.12 121.646 15.12ZM117.946 7.92C117.946 8.65333 118.086 9.34667 118.366 10C118.646 10.64 119.066 11.1667 119.626 11.58C120.186 11.9933 120.866 12.2 121.666 12.2C122.493 12.2 123.18 11.9867 123.726 11.56C124.286 11.1333 124.7 10.5933 124.966 9.94C125.246 9.27333 125.386 8.58667 125.386 7.88C125.386 7.14667 125.24 6.46 124.946 5.82C124.666 5.16667 124.246 4.64 123.686 4.24C123.14 3.84 122.466 3.64 121.666 3.64C120.84 3.64 120.146 3.85333 119.586 4.28C119.04 4.69333 118.626 5.22667 118.346 5.88C118.08 6.53333 117.946 7.21333 117.946 7.92ZM137.342 15.12C136.288 15.12 135.328 14.92 134.462 14.52C133.608 14.1067 132.868 13.56 132.242 12.88C131.615 12.1867 131.135 11.4133 130.802 10.56C130.468 9.69333 130.302 8.8 130.302 7.88C130.302 6.94667 130.475 6.05333 130.822 5.2C131.182 4.33333 131.675 3.56667 132.302 2.9C132.942 2.22 133.695 1.68667 134.562 1.3C135.428 0.913332 136.375 0.719999 137.402 0.719999C138.455 0.719999 139.408 0.926666 140.262 1.34C141.128 1.74 141.868 2.28667 142.482 2.98C143.108 3.67333 143.588 4.45333 143.922 5.32C144.255 6.17333 144.422 7.04667 144.422 7.94C144.422 8.87333 144.242 9.77333 143.882 10.64C143.535 11.4933 143.042 12.26 142.402 12.94C141.775 13.6067 141.028 14.14 140.162 14.54C139.308 14.9267 138.368 15.12 137.342 15.12ZM133.642 7.92C133.642 8.65333 133.782 9.34667 134.062 10C134.342 10.64 134.762 11.1667 135.322 11.58C135.882 11.9933 136.562 12.2 137.362 12.2C138.188 12.2 138.875 11.9867 139.422 11.56C139.982 11.1333 140.395 10.5933 140.662 9.94C140.942 9.27333 141.082 8.58667 141.082 7.88C141.082 7.14667 140.935 6.46 140.642 5.82C140.362 5.16667 139.942 4.64 139.382 4.24C138.835 3.84 138.162 3.64 137.362 3.64C136.535 3.64 135.842 3.85333 135.282 4.28C134.735 4.69333 134.322 5.22667 134.042 5.88C133.775 6.53333 133.642 7.21333 133.642 7.92ZM146.817 15V0.799999H150.097V12.12H156.977V15H146.817ZM167.536 4.96C167.496 4.90667 167.356 4.80667 167.116 4.66C166.876 4.51333 166.576 4.36 166.216 4.2C165.856 4.02667 165.463 3.88667 165.036 3.78C164.61 3.66 164.183 3.6 163.756 3.6C162.583 3.6 161.996 3.99333 161.996 4.78C161.996 5.26 162.25 5.6 162.756 5.8C163.276 6 164.016 6.24 164.976 6.52C165.883 6.77333 166.663 7.06667 167.316 7.4C167.983 7.72 168.496 8.15333 168.856 8.7C169.216 9.23333 169.396 9.94 169.396 10.82C169.396 11.62 169.25 12.3 168.956 12.86C168.663 13.4067 168.263 13.8533 167.756 14.2C167.25 14.5333 166.676 14.78 166.036 14.94C165.41 15.0867 164.756 15.16 164.076 15.16C163.023 15.16 161.956 15.0067 160.876 14.7C159.796 14.38 158.843 13.9467 158.016 13.4L159.456 10.54C159.51 10.6067 159.683 10.7333 159.976 10.92C160.27 11.0933 160.636 11.28 161.076 11.48C161.516 11.68 161.996 11.8533 162.516 12C163.05 12.1333 163.59 12.2 164.136 12.2C165.296 12.2 165.876 11.8467 165.876 11.14C165.876 10.78 165.723 10.5 165.416 10.3C165.123 10.0867 164.716 9.90667 164.196 9.76C163.676 9.6 163.09 9.42 162.436 9.22C161.13 8.82 160.163 8.33333 159.536 7.76C158.923 7.18667 158.616 6.36667 158.616 5.3C158.616 4.3 158.85 3.46 159.316 2.78C159.796 2.08667 160.436 1.56667 161.236 1.22C162.036 0.86 162.91 0.68 163.856 0.68C164.856 0.68 165.803 0.853333 166.696 1.2C167.59 1.53333 168.35 1.88 168.976 2.24L167.536 4.96Z" fill="white"/>
</svg>
